<?xml version="1.0" encoding="UTF-8"?>
<svg id="Layer_2" data-name="Layer 2" xmlns="http://www.w3.org/2000/svg" viewBox="0 0 296.17 296.17">
  <defs>
    <style>
      .cls-1 {
        fill: #977e52;
      }

      .cls-1, .cls-2 {
        stroke-width: 0px;
      }

      .cls-2 {
        fill: #fff;
      }
    </style>
  </defs>
  <g id="letters">
    <g>
      <rect class="cls-2" width="296.17" height="296.17" rx="76.2" ry="76.2"/>
      <path class="cls-1" d="M219.37,151.75c-10.22,0-3.08,7.14.7,12.18,3.78,5.04,8.12,8.68,14.14,4.34,7.28,35-29.96,49.7-54.03,33.04-2.37-5.6-1.41-49-1.68-60.2-.25-10.04,2.8-19.6,18.25-21.59,2.53-.33,3.57-2.65,1.87-4.56-7.11-7.98-17.46-9.76-24.6-5.91-23.24-55.86-66.22-38.78-66.22-24.64s14.35,23.87,14.35,23.87c0,0-20.79-7.98-29.19,4.2-7.87,11.41-17.76,27.42-3.29,48.9h-39.21c-5.16,0-9.1,2.42-7.66,9.84,1,5.18,6.75,10.8,13.75,10.8h103.87c2.25,9.29,7.65,18.33,17.94,26.15,44.24,33.6,75.32,13.44,75.32-13.58s-24.08-42.84-34.3-42.84ZM159.38,161.37h-58.31c-3.71-18.74,4.85-38.19,23.81-38.19,16.5,0,28.78,9.48,34.69,16.06-.1,6.29-.16,14.87-.19,22.12ZM159.76,132.14c0,.17-.01.35-.02.53-8.54-8.27-24.29-21.85-35.14-30.35.42-6.3,9.94-20.58,30.39-14.14,5.19,8.26,5.2,35.63,4.77,43.95Z"/>
    </g>
  </g>
</svg>