<?xml version="1.0" encoding="UTF-8"?>
<svg id="Layer_2" data-name="Layer 2" xmlns="http://www.w3.org/2000/svg" viewBox="0 0 590.7 386.03">
  <defs>
    <style>
      .cls-1 {
        fill: #977e52;
      }

      .cls-1, .cls-2 {
        stroke-width: 0px;
      }

      .cls-2 {
        fill: #c9b991;
      }
    </style>
  </defs>
  <g id="letters">
    <g>
      <g>
        <path class="cls-2" d="M15.98,7.82h2.34c1.28,0,2.19.11,2.74.34.54.23.98.61,1.31,1.14.33.53.5,1.16.5,1.88,0,.76-.18,1.4-.55,1.91s-.92.9-1.65,1.16l2.75,5.16h-2.41l-2.61-4.91h-.2v4.91h-2.21V7.82ZM18.19,12.35h.69c.7,0,1.19-.09,1.45-.28.26-.18.4-.49.4-.92,0-.25-.07-.47-.2-.66-.13-.19-.31-.32-.53-.4-.22-.08-.62-.12-1.21-.12h-.61v2.38Z"/>
        <path class="cls-2" d="M19.68.45C12.45.45,6.55,6.36,6.55,13.63s5.91,13.14,13.14,13.14,13.18-5.91,13.18-13.14S26.95.45,19.68.45ZM19.68,24.35c-5.91,0-10.76-4.8-10.76-10.71S13.77,2.88,19.68,2.88s10.76,4.8,10.76,10.75-4.81,10.71-10.76,10.71Z"/>
      </g>
      <g>
        <path class="cls-1" d="M291.59,313.59c-3.55,7.77-8.69,15.38-12.28,20.3-2.33,3.19-6.85,3.79-9.96,1.35-4.32-3.4-10.29-8.62-14.9-14.72-2.03-2.7-1.81-6.46.49-8.94,5.72-6.17,11-14.02,14-18.76,1.47-2.34,4.63-2.92,6.83-1.22,3.7,2.84,9.36,7.74,14.97,14.72,1.65,2.05,1.95,4.88.85,7.28Z"/>
        <path class="cls-1" d="M268.93,2.2c1.48-2.34,4.63-2.92,6.83-1.23,3.7,2.85,9.36,7.75,14.98,14.71,1.65,2.06,1.95,4.88.85,7.29-3.55,7.78-8.68,15.38-12.28,20.3-2.33,3.2-6.85,3.79-9.96,1.34-4.32-3.4-10.28-8.62-14.89-14.72-2.04-2.7-1.81-6.46.48-8.94,5.73-6.18,11-14.02,14-18.76Z"/>
        <path class="cls-2" d="M544.16,171.73c-13.69,0-4.11,9.55.94,16.31,5.07,6.76,10.89,11.63,18.93,5.82,9.75,46.88-40.12,66.58-72.37,44.26-3.17-7.5-1.88-65.64-2.25-80.65-.34-13.43,3.76-26.24,24.44-28.91,3.39-.43,4.79-3.54,2.51-6.1-9.53-10.69-23.38-13.09-32.94-7.93-31.14-74.83-88.71-51.93-88.71-32.99s18.05,31.14,19.16,31.94c-1.51-.57-28.12-10.21-39.04,5.64-10.52,15.29-23.78,36.73-4.39,65.5h-45.83c-5.76-.69-10.92-6.16-12.92-8.7-5.62-7.13-35.82,20.42-22.7,28.12,13.12,7.7,23.81,23.44,16.51,49.51-27.37,13.12-61.71-21.19-29.09-79.13,11.29-20.05,33.22-46.8,33.22-71.83,0-26.61-8.81-47.25-35.07-47.25-35.45,0-75.2,37.13-63.96,93.59,9.44,47.25,2.25,66.39-.37,73.49-25.69.77-54.58-12.75-31.14-62.05,9.7-20.39,21.22-39.67,21.22-56.84,0-25.12-11.95-42.94-37.16-42.94-42.94,0-90.74,50.07-68.24,91.25,22.5,41.15,17.62,49.22,17.62,49.22,0,0-19.85-1.4-33.94-14.49,1.08-19.36,2.77-143.69-.45-169.84-2.65-21.62-8.04-18.19-17.71-12.01-12.23,7.81-9.35,9.47-9.01,16.51,1.65,32.25,1.4,184.9,1.14,189.66-.28,4.56,5.05,4.33,10.92,1.65,13.83,12.75,31.99,18.54,53.72-4.93,23.81-25.69,23.07-38.27,7.5-67.33-15.57-29.06-8.24-51.39-8.24-51.39,0,0,31.31-15.17,49.88,7.5,40.12,49.05-52.87,103.14-7.3,141.78,34.31,29.09,88.23-25.72,80.82-80.07-7.19-52.76-8.24-63.39-2.8-77.28,32.42-8.98,70.69,23.84,35.42,78.59-21.25,33.02-33.74,56.26-33.74,78.19,0,27.86,14.12,43.31,33.19,43.31,33.33,0,60.51-41.63,62.54-68.58h16.71c.4,0,.77,0,1.17-.06h112.84c2.99,12.43,10.24,24.55,24.01,35.02,59.29,45.03,100.89,18.02,100.89-18.19s-32.25-57.38-45.94-57.38ZM463.8,184.62h-78.11c-4.96-25.09,6.5-51.16,31.88-51.16,22.13,0,38.56,12.69,46.48,21.53-.14,8.41-.23,19.91-.26,29.63ZM464.31,145.47c0,.23-.03.46-.03.71-11.43-11.06-32.53-29.26-47.08-40.66.57-8.41,13.32-27.55,40.72-18.93,6.96,11.06,6.96,47.73,6.39,58.88Z"/>
        <path class="cls-1" d="M268.93,342.11c1.48-2.34,4.63-2.92,6.83-1.23,3.7,2.85,9.36,7.75,14.98,14.71,1.65,2.06,1.95,4.88.85,7.29-3.55,7.78-8.68,15.38-12.28,20.3-2.33,3.2-6.85,3.79-9.96,1.34-4.32-3.4-10.28-8.62-14.89-14.72-2.04-2.7-1.81-6.46.48-8.94,5.73-6.18,11-14.02,14-18.76Z"/>
        <path class="cls-1" d="M168.22,2.2c1.48-2.34,4.63-2.92,6.83-1.23,3.7,2.85,9.36,7.75,14.98,14.71,1.65,2.06,1.95,4.88.85,7.29-3.55,7.78-8.68,15.38-12.28,20.3-2.33,3.2-6.85,3.79-9.96,1.34-4.32-3.4-10.28-8.62-14.89-14.72-2.04-2.7-1.81-6.46.48-8.94,5.73-6.18,11-14.02,14-18.76Z"/>
        <path class="cls-1" d="M125.34,2.2c1.48-2.34,4.63-2.92,6.83-1.23,3.7,2.85,9.36,7.75,14.98,14.71,1.65,2.06,1.95,4.88.85,7.29-3.55,7.78-8.68,15.38-12.28,20.3-2.33,3.2-6.85,3.79-9.96,1.34-4.32-3.4-10.28-8.62-14.89-14.72-2.04-2.7-1.81-6.46.48-8.94,5.73-6.18,11-14.02,14-18.76Z"/>
        <path class="cls-1" d="M37.31,149.72c-5.73-6.19-11.01-14-14-18.76-1.45-2.34-4.62-2.91-6.81-1.23-3.71,2.85-9.35,7.76-14.97,14.71-1.68,2.05-1.97,4.88-.86,7.3,3.54,7.76,8.67,15.37,12.26,20.3,2.34,3.19,6.87,3.77,9.98,1.34,4.31-3.39,10.26-8.64,14.88-14.74,2.02-2.68,1.82-6.44-.48-8.93Z"/>
        <rect class="cls-2" x="487.83" y="302.28" width="102.87" height="3.44"/>
        <rect class="cls-2" x="52.51" y="301.86" width="189.04" height="4.28"/>
        <rect class="cls-2" x="303.16" y="302.05" width="18.54" height="3.9"/>
        <g>
          <path class="cls-1" d="M347.76,288h5.98v11.69h10.34v-11.69h5.96v30.98h-5.96v-13.59h-10.34v13.59h-5.98v-30.98Z"/>
          <path class="cls-1" d="M399.45,309.19h-18.47c.27,1.63.98,2.92,2.14,3.89,1.16.96,2.64,1.44,4.43,1.44,2.15,0,3.99-.75,5.54-2.25l4.84,2.27c-1.21,1.71-2.65,2.98-4.34,3.8-1.69.82-3.69,1.23-6,1.23-3.6,0-6.52-1.13-8.78-3.4-2.26-2.27-3.39-5.11-3.39-8.52s1.13-6.4,3.38-8.71c2.25-2.31,5.08-3.46,8.48-3.46,3.61,0,6.54,1.15,8.8,3.46,2.26,2.31,3.39,5.36,3.39,9.15l-.02,1.1ZM393.7,304.66c-.38-1.28-1.13-2.32-2.25-3.12-1.12-.8-2.42-1.2-3.89-1.2-1.6,0-3.01.45-4.22,1.35-.76.56-1.46,1.55-2.11,2.97h12.47Z"/>
          <path class="cls-1" d="M404.1,296.07h5.75v2.35c1.3-1.1,2.49-1.86,3.54-2.29,1.06-.43,2.14-.64,3.25-.64,2.27,0,4.2.79,5.78,2.38,1.33,1.35,2,3.34,2,5.98v15.14h-5.69v-10.04c0-2.74-.12-4.55-.37-5.45-.24-.9-.67-1.58-1.28-2.05-.61-.47-1.36-.7-2.26-.7-1.16,0-2.16.39-2.99,1.17-.83.78-1.41,1.86-1.73,3.23-.17.72-.25,2.27-.25,4.65v9.19h-5.75v-22.92Z"/>
          <path class="cls-1" d="M430.69,287.62h5.75v8.45h3.41v4.95h-3.41v17.97h-5.75v-17.97h-2.95v-4.95h2.95v-8.45Z"/>
          <path class="cls-1" d="M459.84,296.07h5.75v22.92h-5.75v-2.42c-1.12,1.07-2.25,1.84-3.38,2.31-1.13.47-2.35.71-3.67.71-2.96,0-5.52-1.15-7.68-3.44-2.16-2.3-3.24-5.15-3.24-8.56s1.04-6.44,3.13-8.7c2.09-2.26,4.63-3.39,7.62-3.39,1.37,0,2.66.26,3.87.78,1.21.52,2.32,1.3,3.35,2.34v-2.53ZM453.79,300.79c-1.78,0-3.25.63-4.43,1.88-1.18,1.26-1.76,2.87-1.76,4.83s.6,3.61,1.8,4.89,2.67,1.92,4.42,1.92,3.3-.63,4.49-1.89c1.19-1.26,1.79-2.9,1.79-4.94s-.6-3.61-1.79-4.84c-1.19-1.24-2.69-1.85-4.51-1.85Z"/>
        </g>
      </g>
    </g>
  </g>
</svg>